#!OML:ASF F:\VICON\USERDATA\INSTALL\rory3\rory3.ASF
:FULLY-SPECIFIED
:DEGREES
1
root 0.891196 17.614 -27.7539 -2.55712 2.47808 2.70073
lowerback 9.20028 -2.06211 -5.64215
upperback 0.407811 -3.25231 1.71921
thorax -4.31956 -1.48468 5.38555
lowerneck -17.0075 -2.22145 -1.99563
upperneck 21.1725 -2.48855 -0.288092
head 9.52292 -1.35656 -0.0942617
rclavicle 1.18525e-014 -8.74653e-015
rhumerus -32.9566 -19.2232 -77.3112
rradius 25.2239
rwrist 5.40849
rhand -17.4642 22.5763
rfingers 7.12502
rthumb 8.78745 -7.2208
lclavicle 1.18525e-014 -8.74653e-015
lhumerus -23.1893 -0.967661 81.1787
lradius 30.5767
lwrist 6.02999
lhand -32.6705 25.678
lfingers 7.12502
lthumb -5.8961 55.576
rfemur -28.6299 5.42994 18.5168
rtibia 22.8195
rfoot -8.44017 -12.0948
rtoes -0.0364598
lfemur 18.6142 -5.08723 -27.7187
ltibia 16.8625
lfoot -13.177 -5.26304
ltoes -9.93201
2
root 0.870526 17.6471 -27.5372 -2.54869 2.56587 1.92774
lowerback 9.23918 -2.1614 -4.91471
upperback 0.248333 -3.30018 1.98545
thorax -4.52689 -1.50969 5.26845
lowerneck -16.5393 -2.56674 -2.46966
upperneck 21.545 -2.87066 -0.230048
head 9.58007 -1.56901 -0.0429365
rclavicle -3.61788e-014 1.27222e-014
rhumerus -33.3527 -19.3465 -76.9481
rradius 25.04
rwrist 5.6402
rhand -17.4034 22.3627
rfingers 7.12502
rthumb 8.84612 -7.43185
lclavicle -3.61788e-014 1.27222e-014
lhumerus -23.6489 -0.759802 81.366
lradius 30.7917
lwrist 6.16685
lhand -32.7109 25.5351
lfingers 7.12502
lthumb -5.93506 55.432
rfemur -28.3265 5.87657 19.2825
rtibia 23.1109
rfoot -7.22906 -12.3963
rtoes 0.28205
lfemur 18.343 -5.58146 -26.9198
ltibia 18.5494
lfoot -12.4715 -5.34808
ltoes -12.8429
3
root 0.856444 17.6753 -27.3192 -2.57894 2.45089 1.26515
lowerback 9.06286 -2.01763 -4.09
upperback 0.376928 -3.01019 2.05336
thorax -4.36703 -1.39049 4.82493
lowerneck -16.9234 -2.81348 -2.3569
upperneck 21.8378 -3.23209 -0.244822
head 9.75657 -1.72844 -0.122705
rclavicle 3.37934e-015 3.18055e-015
rhumerus -33.2991 -20.5343 -76.558
rradius 24.5908
rwrist 6.21059
rhand -17.5605 22.2987
rfingers 7.12502
rthumb 8.69449 -7.50225
lclavicle 3.37934e-015 3.18055e-015
lhumerus -23.4068 -1.06533 81.5518
lradius 30.7678
lwrist 6.14151
lhand -32.5769 24.2177
lfingers 7.12502
lthumb -5.80576 54.1181
rfemur -27.9776 6.0484 20.0836
rtibia 23.4893
rfoot -6.45574 -11.9394
rtoes 0.798246
lfemur 17.8638 -5.9474 -26.3119
ltibia 20.6915
lfoot -12.14 -4.96297
ltoes -18.8133
4
root 0.849856 17.6955 -27.1023 -2.65001 2.26932 0.710461
lowerback 8.99665 -1.98077 -3.39454
upperback 0.381798 -2.88067 2.19658
thorax -4.36556 -1.33911 4.56327
lowerneck -17.1162 -2.80286 -2.31171
upperneck 22.0005 -3.20202 -0.336859
head 9.84753 -1.72125 -0.162712
rclavicle 3.20292e-014 -8.74653e-015
rhumerus -33.3692 -21.3759 -76.0193
rradius 24.0079
rwrist 6.89179
rhand -17.5816 22.6762
rfingers 7.12502
rthumb 8.67414 -7.1256
lclavicle 3.20292e-014 -8.74653e-015
lhumerus -23.5584 -0.821428 81.7498
lradius 30.6973
lwrist 6.17536
lhand -32.7199 24.2815
lfingers 7.12502
lthumb -5.94376 54.1781
rfemur -27.5945 6.04909 20.8229
rtibia 23.9426
rfoot -5.89604 -10.803
rtoes 1.39727
lfemur 17.4585 -6.32141 -25.8944
ltibia 22.6942
lfoot -11.0113 -5.64664
ltoes -19.2467
5
root 0.842058 17.709 -26.894 -2.7782 2.05837 0.180719
lowerback 9.21184 -1.97304 -2.88008
upperback 0.247817 -2.80998 2.44436
thorax -4.64566 -1.30259 4.5402
lowerneck -17.0277 -2.7213 -2.41259
upperneck 22.2158 -3.04397 -0.415203
head 9.90687 -1.66701 -0.152792
rclavicle -5.54112e-015 3.18055e-015
rhumerus -33.7095 -21.8467 -75.2758
rradius 23.431
rwrist 7.53361
rhand -17.0494 23.4799
rfingers 7.12502
rthumb 9.18764 -6.29992
lclavicle -5.54112e-015 3.18055e-015
lhumerus -24.0592 -0.46196 82.036
lradius 30.6106
lwrist 6.36052
lhand -32.8118 24.7758
lfingers 7.12502
lthumb -6.03256 54.6699
rfemur -27.1512 5.9808 21.5793
rtibia 24.4673
rfoot -5.49689 -9.60748
rtoes 1.34293
lfemur 16.9777 -6.26743 -25.3145
ltibia 24.8349
lfoot -9.31987 -7.81831
ltoes -16.357
6
root 0.837248 17.7221 -26.6843 -2.94352 1.63766 -0.119348
lowerback 9.36502 -1.93167 -2.53614
upperback 0.158538 -2.71295 2.59325
thorax -4.84326 -1.2542 4.50133
lowerneck -16.6992 -2.58119 -2.50148
upperneck 22.1538 -2.81727 -0.480951
head 9.82168 -1.57822 -0.125255
rclavicle 4.07509e-015 1.03368e-014
rhumerus -34.0478 -22.1993 -74.6659
rradius 22.9075
rwrist 8.29251
rhand -17.0632 23.6432
rfingers 7.12502
rthumb 9.17435 -6.13724
lclavicle 4.07509e-015 1.03368e-014
lhumerus -24.6335 0.241306 82.1781
lradius 30.6117
lwrist 6.33172
lhand -32.9068 25.4403
lfingers 7.12502
lthumb -6.12422 55.3318
rfemur -26.6749 5.52833 22.2479
rtibia 25.0875
rfoot -4.90763 -8.44874
rtoes -0.107434
lfemur 16.4714 -5.95076 -24.9892
ltibia 27.0243
lfoot -6.93614 -9.43721
ltoes -13.5409
7
root 0.833586 17.7465 -26.4679 -2.98073 1.19473 -0.284325
lowerback 9.31032 -1.80413 -2.24275
upperback 0.109148 -2.50849 2.62945
thorax -4.89438 -1.15749 4.34649
lowerneck -16.5552 -2.57365 -2.41728
upperneck 22.0809 -2.81359 -0.56565
head 9.76593 -1.57933 -0.165554
rclavicle 2.22763e-014 7.95139e-015
rhumerus -34.2923 -23.0273 -74.0547
rradius 22.4172
rwrist 9.09067
rhand -17.2197 23.367
rfingers 7.12502
rthumb 9.02335 -6.41996
lclavicle 2.22763e-014 7.95139e-015
lhumerus -25.1514 0.554604 82.3009
lradius 30.7575
lwrist 6.44718
lhand -32.5951 26.4143
lfingers 7.12502
lthumb -5.82332 56.3143
rfemur -26.404 5.07698 22.7241
rtibia 25.9505
rfoot -4.51587 -7.42324
rtoes -1.60411
lfemur 15.7907 -5.49621 -24.7255
ltibia 29.1106
lfoot -4.31038 -10.3108
ltoes -13.0956
8
root 0.823273 17.7707 -26.253 -2.9639 1.01294 -0.366641
lowerback 9.15632 -1.71468 -2.01248
upperback 0.145284 -2.36618 2.57404
thorax -4.7942 -1.09578 4.13139
lowerneck -16.7311 -2.65564 -2.36068
upperneck 22.1335 -2.94859 -0.524906
head 9.81825 -1.63205 -0.181734
rclavicle -5.46658e-016 -1.82882e-014
rhumerus -34.3795 -23.9526 -73.6286
rradius 22.0971
rwrist 9.78989
rhand -17.0626 23.1292
rfingers 7.12502
rthumb 9.1749 -6.65122
lclavicle -5.46658e-016 -1.82882e-014
lhumerus -25.5232 0.713019 82.3164
lradius 30.7194
lwrist 6.348
lhand -32.6221 23.7989
lfingers 7.12502
lthumb -5.8494 53.6982
rfemur -26.0743 4.66881 22.9811
rtibia 26.6375
rfoot -4.30187 -6.37198
rtoes 0.0917062
lfemur 14.8754 -5.1053 -24.4003
ltibia 31.4407
lfoot -1.31923 -11.1845
ltoes -12.4889
9
root 0.809285 17.7729 -26.0483 -2.91701 1.12341 -0.350785
lowerback 9.14582 -1.94768 -2.21318
upperback -0.187149 -2.68442 2.80081
thorax -5.09037 -1.23464 4.5349
lowerneck -15.8329 -2.42257 -2.8314
upperneck 21.9605 -2.54398 -0.45427
head 9.59452 -1.47745 -0.0121679
rclavicle 1.33558e-014 -9.54166e-015
rhumerus -34.7954 -23.5368 -73.0583
rradius 21.7915
rwrist 10.1649
rhand -16.729 23.1843
rfingers 7.12502
rthumb 9.49678 -6.58169
lclavicle 1.33558e-014 -9.54166e-015
lhumerus -26.7622 1.96336 82.3154
lradius 30.4302
lwrist 5.88203
lhand -32.7958 18.1408
lfingers 7.12502
lthumb -6.01705 48.0353
rfemur -25.8535 4.3672 23.0306
rtibia 27.432
rfoot -4.47425 -5.87154
rtoes 3.82559
lfemur 14.0466 -4.88502 -24.1061
ltibia 33.6903
lfoot 1.65182 -11.8165
ltoes -12.4718
10
root 0.791787 17.8382 -25.8409 -2.95512 1.23964 -0.316672
lowerback 9.26465 -1.88377 -2.21063
upperback -0.00319356 -2.6018 2.79126
thorax -4.97226 -1.1993 4.51232
lowerneck -16.9887 -2.45023 -2.78449
upperneck 22.2725 -2.56737 -0.39199
head 9.92201 -1.4764 -0.0185116
rclavicle -5.87657e-015 -2.38542e-015
rhumerus -34.438 -24.3101 -72.8159
rradius 21.5042
rwrist 10.591
rhand -16.8238 22.8677
rfingers 7.12502
rthumb 9.40534 -6.90244
lclavicle -5.87657e-015 -2.38542e-015
lhumerus -26.6858 1.93566 82.5349
lradius 30.3879
lwrist 6.09877
lhand -32.6986 16.1559
lfingers 7.12502
lthumb -5.92324 46.0531
rfemur -25.3784 3.89833 23.1615
rtibia 28.143
rfoot -4.97999 -5.7107
rtoes 4.24621
lfemur 12.5957 -4.58854 -23.8002
ltibia 36.066
lfoot 5.46407 -12.9351
ltoes -11.7608
11
root 0.77587 17.8428 -25.6412 -3.03806 1.23813 -0.439245
lowerback 9.40458 -1.85178 -2.12734
upperback -0.00876132 -2.54697 2.8723
thorax -5.0618 -1.17097 4.55085
lowerneck -17.0698 -2.48276 -2.78204
upperneck 22.2385 -2.59644 -0.447775
head 9.92476 -1.49577 -0.0431682
rclavicle -2.47735e-014 2.22639e-014
rhumerus -34.5059 -24.3931 -72.6009
rradius 21.4135
rwrist 10.6488
rhand -16.9572 22.449
rfingers 7.12502
rthumb 9.27664 -7.32691
lclavicle -2.47735e-014 2.22639e-014
lhumerus -27.1918 1.79649 82.8336
lradius 30.8363
lwrist 6.45996
lhand -32.4024 17.6182
lfingers 7.12502
lthumb -5.63727 47.5232
rfemur -24.9554 3.39532 23.5458
rtibia 28.7622
rfoot -5.23643 -5.27673
rtoes 2.54011
lfemur 11.3692 -3.99338 -23.3207
ltibia 38.426
lfoot 7.3788 -14.8473
ltoes -12.8405
12
root 0.75785 17.8489 -25.4406 -3.23862 1.08272 -0.720536
lowerback 9.58706 -1.76172 -1.82083
upperback -0.0392916 -2.3935 2.87215
thorax -5.22301 -1.09848 4.36682
lowerneck -16.517 -2.52872 -2.66083
upperneck 21.8915 -2.72019 -0.422753
head 9.6974 -1.53903 -0.060912
rclavicle 1.50455e-014 1.35174e-014
rhumerus -34.8625 -24.4027 -72.5509
rradius 21.594
rwrist 10.471
rhand -16.6603 22.2962
rfingers 7.12502
rthumb 9.5631 -7.46682
lclavicle 1.50455e-014 1.35174e-014
lhumerus -27.7216 1.63773 82.8977
lradius 31.0462
lwrist 6.50735
lhand -31.6012 19.1172
lfingers 7.12502
lthumb -4.86365 49.0414
rfemur -24.1733 3.22953 24.0859
rtibia 28.9958
rfoot -5.23783 -4.38172
rtoes 3.20548
lfemur 10.2802 -3.38986 -22.683
ltibia 40.9747
lfoot 8.59312 -16.0201
ltoes -8.52464
13
root 0.740951 17.8778 -25.2472 -3.35112 1.03825 -1.20123
lowerback 9.61458 -1.70646 -1.29913
upperback 0.0761157 -2.25985 2.92594
thorax -5.1466 -1.0479 4.10739
lowerneck -16.3689 -2.5807 -2.53118
upperneck 21.5692 -2.84693 -0.361553
head 9.5559 -1.57858 -0.0730266
rclavicle 6.99474e-015 -3.18055e-015
rhumerus -34.7905 -24.491 -72.6683
rradius 21.6701
rwrist 10.209
rhand -16.5 22.5164
rfingers 7.12502
rthumb 9.71773 -7.23937
lclavicle 6.99474e-015 -3.18055e-015
lhumerus -27.7253 1.19981 83.0435
lradius 30.9528
lwrist 6.89628
lhand -31.2763 20.2632
lfingers 7.12502
lthumb -4.54991 50.1944
rfemur -23.4573 3.06304 24.8109
rtibia 29.1649
rfoot -5.30567 -3.49356
rtoes 4.49366
lfemur 9.04469 -3.07496 -21.8396
ltibia 43.4885
lfoot 11.5246 -14.2657
ltoes 9.64318
